<?xml version="1.0" encoding="UTF-8"?>
<svg id="Layer_1" data-name="Layer 1" xmlns="http://www.w3.org/2000/svg" version="1.1" viewBox="0 0 499.3 500">
  <defs>
    <style>
      .cls-1 {
        fill: #fff;
        stroke-width: 0px;
      }
    </style>
  </defs>
  <path class="cls-1" d="M.4,428.8c3.5-5.7,7.9-11.7,12.3-16.7,4.1-4.7,13.4-9.7,15.7-15.3,1.1-2.5-.3-14.1-.3-18.8s1.9-2.3,3-2.9c5.3-2.9,10.5-5.7,15.8-8.6-1.1-6.1-2.4-11.7,3.2-15.4,5-3.3,12.8-3.1,19.1-4.3-2.7,0,2.7-4.5,5.5-6.7,2-1.6,3.9-2.2,6.4-3.1,4.8-1.8,9.8-3,14.8-4.2,1.1-5,1.8-10.6,4.8-14.4,3.9-4.9,12-8.8,16.9-12.4,15.5-11.3,30.2-19.6,47.1-28,0-.1,0-.3,0-.5.1-1.2,1-2.7,1.3-3.8,1-3.7,3.6-7.7,5.9-10.7,4.3-5.4,9.9-9,16.4-11.2,15.9-5.3,33.8,0,49.1,4.8,1.4.4,5.1,1.1,7.8,2.1,3.1.1,6.1,0,8.8-.2.2,0,.3,0,.5,0,3.1-.8,6.3-1.6,9.4-2.5,5.1-1.4,10.1-2.9,15.1-4.4,9.2-3.2,19-6.9,27.7-10.1,11.6-5,22.7-11.1,33.1-19.1,5.5-4.3,10.8-7.9,17.3-10.5,2.4-1,4.9-1.7,7.5-2.5h0s0,0,0,0c2.8-.9,5.7-1.7,8.4-2.8,10.7-4.2,14.3-10.1,20.1-19.3,8.9-14.2,20.7-23.6,37.8-24.8,13.6-1,36.2,1.5,44.4,14.2,5.8,9,2.7,19.8,1.1,29.3-1,5.7.9,11.7-1.2,17.7-1,2.9-11.5,5.9-13.7,3.7-2-2-4-4-6-6-4.8,5.4-7.1,11.6-10.7,19.3-4.2,8.9-6.8,11.2-4.5,20.8.9,3.7-10.8,5.1-12.9,4.7-1.6-.3-3.1-.7-4.7-1-3.1,1.8-6.2,3.7-9.2,5.5-2.3,1.4-3.5,3-3.6,2.8-.3,2.4,1.2,6.4,1.6,8.6.5,3.4-11.8,6.3-13.8,4.3-2.1-2.1-4.4-5.2-6.8-7.4v1c0,3.1-6.9,4.9-11.1,4.8,0,.6.2,1.3.4,2.2.7,3.2-7.5,4.6-11.4,4.7-6.5,8.9-12.9,17.9-19.3,27,4-1.2,8-2.2,12.1-3,3.6-.7,9.5-2.7,13.7-2.6,1.3-1.1,3-2.1,4.2-3,2-1.5,11.8-6.1,13.5-2.4.7,1.5,3.5,7.3,6,6.4.7-.5.7-.8.7-1.1,0-.6.8-3.4,1.8-4,1.1-.7,5-5.4,7.2-2.4,3.9,5.5,1.7,5.7,8.4,6.1.7,0,1.3,0,2,0,.5-1,.9-2.1,1.4-3.1,1.3-2.8,7.6-4,10.1-4.1,1.1,0,4.7-.3,6.7-.3,1.8-.7,5.2-1.9,6.2-2.3.9-.4,2-.7,3.1-1.1,0-.2.3-.7,1-1.5,1.9-2.3,4.1-4.5,6.1-6.7,2.2-2.4,9.6-4.7,12.8-3.1.5-1.1,1.1-2.3,1.9-4.1,1.5-3.4,10.6-5.3,13.7-3.7,2,1.1,4,2.1,6,3.2,3.9-.7,7.9-.8,11.4.2V0H-.7v430.4c.4-.6.8-1.2,1.1-1.7Z"/>
  <path class="cls-1" d="M394.8,330.7c2.6,2.6,6.3,7.9,9.7,10.1.7.2,1.8.5,2.3.3,5.7-1.6,2.5-1.9,5.9-3.9,12.1-6.8,34.8-4.1,38.2-21.5.7-3.7,7-4.8,9.9-4.9,5.9-.3,6.6-2.5,9.2-7.7.7-1.4,2.8-2.5,5.1-3.1.4-2.6.6-4.6.6-6.2-1.2,1-2.5,1.9-4.4,3.1-2.6,1.7-8.9,4.1-12,2.3-7.7,6.2-16.3,9.7-26.3,11.1-.6,1.3-1.2,2.6-1.8,4-1.5,3.3-8.5,4.2-11.6,4.2h-17.7c-.3,0-2.6-.2-2.5-1,0-.4,0-.8,0-1.3-4.4,1.6-9,2.3-15.3,2.3s-2.1-.2-2.5-1c-.5-1-1-2.1-1.5-3.1-9.8,3.5-22.7,7-34.1,10.2-1,2.3-2,4.5-3.1,6.8-1.9,4.1-8.7,6.2-12.8,4.3-.2,0-.3-.1-.5-.2-.3.6-.6,1.1-.9,1.7-1.8,3.5-8.4,4.7-12.1,3.2-11.8,7.1-23.9,11.1-37.8,11.3-8.5,10.1-15.5,25.2,3.1,26,13.1.5,26.1-2.3,39-4.4,4.5-.7,8.9-1.5,13.4-2.2,1.4-1,2.8-2.1,4.3-2.9,1.7-1,3.2-1.6,4.8-2.1,2.4-4.5,8.2-5.8,14-6.2,2-3.6,5.8-6.3,9.8-6.8,1-2.4,2-5,6.2-7.9,1.9-1.3,5-2.2,7.7-2,.2-1.8,0-4,0-7.7s10.4-8,13.7-4.7Z"/>
  <path class="cls-1" d="M491.8,330.5c-24.3,31.2-53.7,53.3-87.4,73.3-28.9,17.1-58.4,35-89.2,48.6-16.6,7.4-34.1,13.2-51.6,18.1-.8.2-1.8.5-2.7.8-.5.2-.8.3-.9.3h0c-3.8,1.2-8.2,2.5-12.6,3.3-.4,8.4-1.4,16.7-2.3,25.1h254.4v-179.2c-2.7,3.6-5.4,6.9-7.5,9.6Z"/>
  <path class="cls-1" d="M74.8,350.3h0s0,0,0,0c0,0,0,0,0,0Z"/>
</svg>